Coordinates
version=1
nRows=43
nColumns=12
inDegrees=yes

Units are S.I. units (second, meters, Newtons, ...)
Angles are in degrees

endheader
time	SC_y	SC_z	SC_x	AC_y	AC_z	AC_x	GH_y	GH_z	GH_yy	EL_x	PS_y
       0.0              -34.43          37.15          61.07          66.34          3.446          3.055           94.9          58.21          35.89          101.2          158.1
   0.02135              -34.43          37.14          61.07          66.34          3.443          3.052          94.89           58.2          35.89          101.2          158.1
   0.04269              -34.43          37.14          61.07          66.34           3.44           3.05          94.88          58.19          35.89          101.2          158.1
   0.06404              -34.42          37.13          61.07          66.34          3.436          3.048          94.87          58.18          35.89          101.2          158.0
   0.08538              -34.42          37.12          61.08          66.34          3.433          3.045          94.87          58.16          35.89          101.2          158.0
    0.1067              -34.42          37.12          61.08          66.34          3.429          3.043          94.86          58.15          35.89          101.2          158.0
    0.1281              -34.42          37.11          61.08          66.34          3.425           3.04          94.85          58.14          35.88          101.1          158.0
    0.1494              -34.42           37.1          61.08          66.34           3.42          3.037          94.84          58.12          35.88          101.1          157.9
    0.1708              -34.41          37.09          61.09          66.34          3.416          3.033          94.83           58.1          35.88          101.1          157.9
    0.1921              -34.41          37.08          61.09          66.34          3.411           3.03          94.81          58.08          35.88          101.1          157.9
    0.2135              -34.41          37.07          61.09          66.34          3.405          3.026           94.8          58.06          35.88          101.1          157.8
    0.2348              -34.41          37.06           61.1          66.34          3.399          3.022          94.79          58.04          35.88          101.1          157.8
    0.2561               -34.4          37.05           61.1          66.34          3.393          3.017          94.77          58.02          35.88          101.0          157.7
    0.2775               -34.4          37.03           61.1          66.34          3.386          3.012          94.76          57.99          35.87          101.0          157.7
    0.2988              -34.39          37.02          61.11          66.34          3.379          3.007          94.74          57.97          35.87          101.0          157.6
    0.3202              -34.39           37.0          61.11          66.34           3.37          3.002          94.72          57.94          35.87          101.0          157.6
    0.3415              -34.39          36.99          61.12          66.34          3.362          2.996           94.7           57.9          35.87          100.9          157.5
    0.3629              -34.38          36.97          61.12          66.34          3.352          2.989          94.68          57.87          35.86          100.9          157.5
    0.3842              -34.38          36.95          61.13          66.34          3.342          2.982          94.66          57.83          35.86          100.9          157.4
    0.4056              -34.37          36.92          61.13          66.34           3.33          2.974          94.63          57.79          35.86          100.8          157.3
    0.4269              -34.36           36.9          61.14          66.34          3.318          2.965           94.6          57.74          35.85          100.8          157.2
    0.4483              -34.36          36.87          61.15          66.34          3.304          2.955          94.57          57.69          35.85          100.7          157.2
    0.4696              -34.35          36.84          61.16          66.34          3.289          2.945          94.54          57.64          35.84          100.7          157.0
     0.491              -34.34          36.81          61.17          66.34          3.272          2.933           94.5          57.58          35.84          100.6          156.9
    0.5123              -34.33          36.78          61.18          66.34          3.253           2.92          94.45          57.51          35.83          100.6          156.8
    0.5336              -34.32          36.74          61.19          66.34          3.233          2.905          94.41          57.43          35.83          100.5          156.7
     0.555              -34.31          36.69           61.2          66.34          3.209          2.889          94.35          57.35          35.82          100.4          156.5
    0.5763              -34.29          36.64          61.21          66.33          3.183           2.87          94.29          57.25          35.81          100.3          156.3
    0.5977              -34.28          36.58          61.23          66.33          3.153           2.85          94.22          57.14           35.8          100.2          156.1
     0.619              -34.26          36.52          61.25          66.33          3.119          2.826          94.15          57.02          35.79          100.1          155.9
    0.6404              -34.24          36.44          61.27          66.33          3.081          2.799          94.06          56.88          35.78          100.0          155.7
    0.6617              -34.22          36.36           61.3          66.33          3.037          2.768          93.96          56.72          35.77          99.86          155.4
    0.6831              -34.19          36.26          61.32          66.33          2.986          2.732          93.84          56.53          35.76          99.69          155.0
    0.7044              -34.16          36.14          61.36          66.33          2.926          2.691           93.7          56.31          35.74          99.49          154.6
    0.7258              -34.12          36.01          61.39          66.33          2.857          2.642          93.54          56.06          35.72          99.26          154.2
    0.7471              -34.08          35.85          61.44          66.33          2.775          2.585          93.35          55.76          35.69          98.99          153.6
    0.7684              -34.03          35.66          61.49          66.32          2.678          2.517          93.13           55.4          35.66          98.67          153.0
    0.7898              -33.97          35.44          61.56          66.32          2.561          2.435          92.86          54.98          35.63          98.28          152.2
    0.8111               -33.9          35.17          61.64          66.32           2.42          2.337          92.54          54.46          35.59          97.82          151.2
    0.8325              -33.81          34.83          61.73          66.31          2.248          2.216          92.14          53.83          35.54          97.25          150.1
    0.8538               -33.7          34.42          61.85          66.31          2.035          2.067          91.65          53.05          35.47          96.54          148.7
    0.8752              -33.56          33.91           62.0           66.3           1.77          1.882          91.04          52.08           35.4          95.67          146.9
    0.8965              -33.38          33.27          62.18          66.29          1.436          1.648          90.28          50.86           35.3          94.56          144.6
